<svg width="70" height="61" viewBox="0 0 70 61" fill="none" xmlns="http://www.w3.org/2000/svg">
<path d="M33.7941 60.3495C34.01 60.2597 34.7179 59.1352 35.367 57.8506C37.2772 54.0706 40.4484 49.0419 42.7116 46.2039C45.6137 42.5647 50.2469 38.2004 53.7007 35.8525C57.6347 33.1781 63.5063 28.4991 65.8246 26.1912C67.185 24.8368 68.0603 23.6039 68.8661 21.9071C69.9106 19.7078 69.9977 19.3132 70 16.771C70.0031 13.3071 69.1918 10.7737 67.1467 7.86203C65.2122 5.10771 63.5414 3.64482 60.9025 2.39463C54.8016 -0.495645 46.5253 -0.802896 40.9696 1.65463C38.9691 2.53958 36.1366 5.53463 35.0648 7.89834C34.0172 10.2088 33.9579 10.8373 34.7222 11.529C35.5629 12.2898 35.911 12.1567 36.7935 10.7372C40.0838 5.44416 44.5837 7.15135 50 6.80811C54.6207 6.51528 56 7.86203 59 9.5C62.034 12.5121 60.7264 12.9592 60.448 17.3118C60.1551 21.8898 58.6851 26.966 53.7007 30.5C48.8362 33.9491 47.2463 36.7571 42.0713 41.9208C37.1764 46.805 35.7859 48.6128 33.7856 52.6926C33.1479 53.9932 32.526 55.0568 32.4035 55.0562C32.2811 55.0556 31.7021 54.1293 31.1169 52.9977C29.7452 50.3451 28.0511 46.2766 24.7297 44C20.4177 41.0443 15.5511 35.9324 11 31.5C7.42271 28.016 8.69714 27.5534 7.99999 26C5.01136 19.3405 6.49402 14.685 12.5 11.529C17.3661 8.97188 18.45 10 24.1883 11.529C26.1842 12.3876 28.239 12.1968 28.521 13.9056C28.7902 15.537 29.1379 16.0007 30.0919 16.0007C32.4451 16.0007 30.151 11.0598 26.6932 8.68075C24.5339 7.1951 22.2291 6.5391 18.45 6.33453C15.617 6.18117 14.6891 6.25504 12.5 6.80811C6.18669 8.40311 2.21676 11.8946 0.556923 17.3118C-0.258324 19.9725 -0.161949 24.9777 0.737312 26.6802C1.86718 28.8193 4.1059 31.9942 5.69375 33.7093C7.29203 35.4356 8.39968 36.377 14.4833 41.179C25.5966 49.951 27.0196 51.395 30.5249 57.4566C32.1841 60.3257 32.7171 60.7974 33.7941 60.3495ZM26.002 40.3348C26.728 39.7789 28.8027 35.7049 29.5828 33.3035C29.9531 32.1634 30.4926 29.8978 30.7816 28.2688L31.8036 27L36.557 26C39.9244 26.1151 42.9885 20.1246 42.557 19C42.3995 18.5896 37.5563 23.6281 35.1232 23.6242C33.5049 23.6218 32.0111 23.5117 31.8036 23.3799C31.5742 23.2343 31.3349 21.9499 31.1933 20.1045C30.9624 17.0954 30.953 17.0678 30.1319 16.9731C29.1594 16.861 28.5695 17.0611 28.4497 20.1045L28.8244 22.2558L27.4203 22.1864C26.1985 22.1259 20.8948 20.5144 16.3998 18.8378C15.3292 18.4385 14.8714 18.3892 14.615 18.6456C13.8721 19.3885 11.9584 22.159 14.615 23.3799C17.892 24.8861 19.5 25 23.5 26L26.002 26.1912L28.4497 26.3727C28.3415 28.8582 26.9613 33.5446 25.3348 36.9497C24.2634 39.1929 23.9467 40.1409 24.1883 40.3825C24.6309 40.825 25.3878 40.8051 26.002 40.3348Z" fill="#FB6F92"/>
</svg>
